HIERARCHY
ROOT Hips
{
	OFFSET 0.000000 71.427986 0.000000
	CHANNELS 6 Xposition Yposition Zposition Xrotation Yrotation Zrotation
	JOINT Pelvis
	{
		OFFSET 0.000000 0.000000 0.000000
		CHANNELS 3 Xrotation Yrotation Zrotation
		JOINT LeftUpLeg
		{
			OFFSET 6.797100 -2.508499 -1.318700
			CHANNELS 3 Xrotation Yrotation Zrotation
			JOINT LeftLeg
			{
				OFFSET 0.069008 -29.241863 0.690200
				CHANNELS 3 Xrotation Yrotation Zrotation
				JOINT LeftFoot
				{
					OFFSET -0.069008 -29.568123 -0.266800
					CHANNELS 3 Xrotation Yrotation Zrotation
					JOINT LeftToeBase
					{
						OFFSET 3.145500 -8.631000 16.059900
						CHANNELS 3 Xrotation Yrotation Zrotation
						End Site
						{
							OFFSET 0.000000 18.501587 0.000000
						}
					}
				}
			}
			JOINT Left_ShortSleeve
			{
				OFFSET 0.265923 -10.480953 1.153800
				CHANNELS 3 Xrotation Yrotation Zrotation
				End Site
				{
					OFFSET 1.725763 19.823879 0.000000
				}
			}
		}
		JOINT RightUpLeg
		{
			OFFSET -6.797100 -2.508499 -1.318700
			CHANNELS 3 Xrotation Yrotation Zrotation
			JOINT RightLeg
			{
				OFFSET -0.082453 -29.241932 0.688000
				CHANNELS 3 Xrotation Yrotation Zrotation
				JOINT RightFoot
				{
					OFFSET 0.082453 -29.568058 -0.264600
					CHANNELS 3 Xrotation Yrotation Zrotation
					JOINT RightToeBase
					{
						OFFSET -3.115300 -8.682800 16.113400
						CHANNELS 3 Xrotation Yrotation Zrotation
						End Site
						{
							OFFSET 0.000000 18.567114 0.000000
						}
					}
				}
			}
			JOINT Right_ShortSleeve
			{
				OFFSET -0.265923 -10.480953 1.153800
				CHANNELS 3 Xrotation Yrotation Zrotation
				End Site
				{
					OFFSET -1.725766 19.823910 0.000000
				}
			}
		}
	}
	JOINT Spine
	{
		OFFSET 0.000000 13.368103 0.470500
		CHANNELS 3 Xrotation Yrotation Zrotation
		JOINT Spine1
		{
			OFFSET 0.147000 13.837402 0.538800
			CHANNELS 3 Xrotation Yrotation Zrotation
			JOINT Spine2
			{
				OFFSET 0.168000 16.242897 -1.435500
				CHANNELS 3 Xrotation Yrotation Zrotation
				JOINT Neck
				{
					OFFSET 0.217200 18.631500 -1.679100
					CHANNELS 3 Xrotation Yrotation Zrotation
					JOINT Head
					{
						OFFSET 0.000000 6.599396 1.385900
						CHANNELS 3 Xrotation Yrotation Zrotation
						JOINT Hat
						{
							OFFSET -0.532200 27.220596 -10.096100
							CHANNELS 3 Xrotation Yrotation Zrotation
							End Site
							{
								OFFSET 0.000000 22.029861 0.000000
							}
						}
						JOINT HairD
						{
							OFFSET -10.777400 17.437393 -1.325900
							CHANNELS 3 Xrotation Yrotation Zrotation
							JOINT HairD1
							{
								OFFSET -3.290299 -11.051193 1.062200
								CHANNELS 3 Xrotation Yrotation Zrotation
								End Site
								{
									OFFSET 0.000000 11.579437 0.000000
								}
							}
						}
						JOINT HairB
						{
							OFFSET -10.777400 17.437393 1.467900
							CHANNELS 3 Xrotation Yrotation Zrotation
							JOINT HairB1
							{
								OFFSET -1.561200 -12.956299 3.590200
								CHANNELS 3 Xrotation Yrotation Zrotation
								End Site
								{
									OFFSET 0.000000 13.534866 0.000000
								}
							}
						}
						JOINT HairA
						{
							OFFSET 9.713100 17.437393 1.467900
							CHANNELS 3 Xrotation Yrotation Zrotation
							JOINT HairA1
							{
								OFFSET 1.561200 -12.956299 3.590200
								CHANNELS 3 Xrotation Yrotation Zrotation
								End Site
								{
									OFFSET 0.000000 13.534866 0.000000
								}
							}
						}
						JOINT HairC
						{
							OFFSET 9.713100 17.437393 -1.325900
							CHANNELS 3 Xrotation Yrotation Zrotation
							JOINT HairC1
							{
								OFFSET 3.290300 -11.051193 1.062200
								CHANNELS 3 Xrotation Yrotation Zrotation
								End Site
								{
									OFFSET 0.000000 11.579437 0.000000
								}
							}
						}
					}
				}
				JOINT LeftShoulder
				{
					OFFSET 5.101800 15.108002 -2.763700
					CHANNELS 3 Xrotation Yrotation Zrotation
					JOINT LeftArm
					{
						OFFSET 9.825497 2.506317 -1.597400
						CHANNELS 3 Xrotation Yrotation Zrotation
						JOINT LeftForeArm
						{
							OFFSET 21.966244 0.000000 0.000000
							CHANNELS 3 Xrotation Yrotation Zrotation
							JOINT LeftHand
							{
								OFFSET 33.879036 0.000000 0.000000
								CHANNELS 3 Xrotation Yrotation Zrotation
								JOINT LeftHandThumb1
								{
									OFFSET 6.715286 -2.359680 3.363841
									CHANNELS 3 Xrotation Yrotation Zrotation
									JOINT LeftHandThumb2
									{
										OFFSET 2.507072 -1.447464 1.447461
										CHANNELS 3 Xrotation Yrotation Zrotation
										JOINT LeftHandThumb3
										{
											OFFSET 2.898338 -1.673355 1.673357
											CHANNELS 3 Xrotation Yrotation Zrotation
											End Site
											{
												OFFSET -0.295959 3.727692 -0.131651
											}
										}
									}
								}
								JOINT LeftHandIndex1
								{
									OFFSET 14.190811 -0.254547 3.840278
									CHANNELS 3 Xrotation Yrotation Zrotation
									JOINT LeftHandIndex2
									{
										OFFSET 3.551727 0.000000 -0.000000
										CHANNELS 3 Xrotation Yrotation Zrotation
										JOINT LeftHandIndex3
										{
											OFFSET 2.894196 0.000000 0.000000
											CHANNELS 3 Xrotation Yrotation Zrotation
											End Site
											{
												OFFSET -1.000603 2.690872 0.366626
											}
										}
									}
								}
								JOINT LeftHandMiddle1
								{
									OFFSET 13.776489 0.000000 0.000000
									CHANNELS 3 Xrotation Yrotation Zrotation
									JOINT LeftHandMiddle2
									{
										OFFSET 3.438232 0.000000 0.000000
										CHANNELS 3 Xrotation Yrotation Zrotation
										JOINT LeftHandMiddle3
										{
											OFFSET 3.691551 0.000000 0.000000
											CHANNELS 3 Xrotation Yrotation Zrotation
											End Site
											{
												OFFSET -1.082298 3.499527 0.457670
											}
										}
									}
								}
								JOINT LeftHandRing1
								{
									OFFSET 13.966164 -0.268127 -3.067488
									CHANNELS 3 Xrotation Yrotation Zrotation
									JOINT LeftHandRing2
									{
										OFFSET 3.162567 0.000000 0.000000
										CHANNELS 3 Xrotation Yrotation Zrotation
										JOINT LeftHandRing3
										{
											OFFSET 3.324348 0.000000 0.000000
											CHANNELS 3 Xrotation Yrotation Zrotation
											End Site
											{
												OFFSET -0.861900 3.184998 0.405154
											}
										}
									}
								}
								JOINT LeftHandPinky1
								{
									OFFSET 13.131393 -0.168503 -5.746925
									CHANNELS 3 Xrotation Yrotation Zrotation
									JOINT LeftHandPinky2
									{
										OFFSET 2.849182 0.000000 0.000000
										CHANNELS 3 Xrotation Yrotation Zrotation
										JOINT LeftHandPinky3
										{
											OFFSET 2.805038 0.000000 0.000000
											CHANNELS 3 Xrotation Yrotation Zrotation
											End Site
											{
												OFFSET -0.882500 2.642609 0.325652
											}
										}
									}
								}
							}
							JOINT Left_Sleeve
							{
								OFFSET 6.592125 -0.646545 0.805568
								CHANNELS 3 Xrotation Yrotation Zrotation
								End Site
								{
									OFFSET -0.000179 20.275787 -0.000000
								}
							}
						}
					}
				}
				JOINT RightShoulder
				{
					OFFSET -5.731700 15.108002 -2.763700
					CHANNELS 3 Xrotation Yrotation Zrotation
					JOINT RightArm
					{
						OFFSET -9.825497 2.506317 -1.597400
						CHANNELS 3 Xrotation Yrotation Zrotation
						JOINT RightForeArm
						{
							OFFSET -21.966242 0.000000 0.000000
							CHANNELS 3 Xrotation Yrotation Zrotation
							JOINT RightHand
							{
								OFFSET -33.879032 0.000000 0.000000
								CHANNELS 3 Xrotation Yrotation Zrotation
								JOINT RightHandThumb1
								{
									OFFSET -6.715286 -2.359680 3.363841
									CHANNELS 3 Xrotation Yrotation Zrotation
									JOINT RightHandThumb2
									{
										OFFSET -2.507072 -1.447464 1.447461
										CHANNELS 3 Xrotation Yrotation Zrotation
										JOINT RightHandThumb3
										{
											OFFSET -2.898338 -1.673355 1.673357
											CHANNELS 3 Xrotation Yrotation Zrotation
											End Site
											{
												OFFSET 0.295959 3.727692 -0.131651
											}
										}
									}
								}
								JOINT RightHandIndex1
								{
									OFFSET -14.190811 -0.254547 3.840278
									CHANNELS 3 Xrotation Yrotation Zrotation
									JOINT RightHandIndex2
									{
										OFFSET -3.551727 0.000000 -0.000000
										CHANNELS 3 Xrotation Yrotation Zrotation
										JOINT RightHandIndex3
										{
											OFFSET -2.894196 0.000000 0.000000
											CHANNELS 3 Xrotation Yrotation Zrotation
											End Site
											{
												OFFSET 1.000603 2.690872 0.366626
											}
										}
									}
								}
								JOINT RightHandMiddle1
								{
									OFFSET -13.776489 0.000000 0.000000
									CHANNELS 3 Xrotation Yrotation Zrotation
									JOINT RightHandMiddle2
									{
										OFFSET -3.438232 0.000000 0.000000
										CHANNELS 3 Xrotation Yrotation Zrotation
										JOINT RightHandMiddle3
										{
											OFFSET -3.691551 0.000000 0.000000
											CHANNELS 3 Xrotation Yrotation Zrotation
											End Site
											{
												OFFSET 1.082298 3.499527 0.457670
											}
										}
									}
								}
								JOINT RightHandRing1
								{
									OFFSET -13.966164 -0.268127 -3.067488
									CHANNELS 3 Xrotation Yrotation Zrotation
									JOINT RightHandRing2
									{
										OFFSET -3.162567 0.000000 0.000000
										CHANNELS 3 Xrotation Yrotation Zrotation
										JOINT RightHandRing3
										{
											OFFSET -3.324348 0.000000 0.000000
											CHANNELS 3 Xrotation Yrotation Zrotation
											End Site
											{
												OFFSET 0.861900 3.184998 0.405154
											}
										}
									}
								}
								JOINT RightHandPinky1
								{
									OFFSET -13.131393 -0.168503 -5.746925
									CHANNELS 3 Xrotation Yrotation Zrotation
									JOINT RightHandPinky2
									{
										OFFSET -2.849182 0.000000 0.000000
										CHANNELS 3 Xrotation Yrotation Zrotation
										JOINT RightHandPinky3
										{
											OFFSET -2.805038 0.000000 0.000000
											CHANNELS 3 Xrotation Yrotation Zrotation
											End Site
											{
												OFFSET 0.882500 2.642609 0.325652
											}
										}
									}
								}
							}
							JOINT Right_Sleeve
							{
								OFFSET -6.592125 -0.646545 0.805568
								CHANNELS 3 Xrotation Yrotation Zrotation
								End Site
								{
									OFFSET 0.000179 20.275787 -0.000000
								}
							}
						}
					}
				}
				JOINT Bind_Right_JacketString
				{
					OFFSET -3.534800 11.969597 7.200700
					CHANNELS 3 Xrotation Yrotation Zrotation
					JOINT Bind_Right_JacketString1
					{
						OFFSET -0.319900 -6.102600 2.794100
						CHANNELS 3 Xrotation Yrotation Zrotation
						End Site
						{
							OFFSET 0.000000 6.719452 0.000000
						}
					}
				}
				JOINT Bind_Left_JacketString
				{
					OFFSET 2.904800 11.969597 7.200700
					CHANNELS 3 Xrotation Yrotation Zrotation
					JOINT Bind_Left_JacketString1
					{
						OFFSET 0.364800 -5.904503 3.186800
						CHANNELS 3 Xrotation Yrotation Zrotation
						End Site
						{
							OFFSET 0.000000 6.719513 0.000000
						}
					}
				}
				JOINT HairE
				{
					OFFSET 5.915200 17.612701 -11.592200
					CHANNELS 3 Xrotation Yrotation Zrotation
					JOINT HairE1
					{
						OFFSET 0.289200 -7.171898 -1.284500
						CHANNELS 3 Xrotation Yrotation Zrotation
						End Site
						{
							OFFSET 0.000000 7.291756 0.000000
						}
					}
				}
				JOINT HairF
				{
					OFFSET -0.864800 17.612701 -11.592200
					CHANNELS 3 Xrotation Yrotation Zrotation
					JOINT HairF1
					{
						OFFSET 0.000000 -14.087097 -2.127501
						CHANNELS 3 Xrotation Yrotation Zrotation
						End Site
						{
							OFFSET 0.000000 14.246841 0.000000
						}
					}
				}
				JOINT HairG
				{
					OFFSET -8.087700 17.612701 -11.592200
					CHANNELS 3 Xrotation Yrotation Zrotation
					JOINT HairG1
					{
						OFFSET -0.293600 -6.081398 -0.910100
						CHANNELS 3 Xrotation Yrotation Zrotation
						End Site
						{
							OFFSET 0.000000 6.156120 0.000000
						}
					}
				}
			}
		}
	}
	JOINT Pouch
	{
		OFFSET 0.000000 4.394501 10.847300
		CHANNELS 3 Xrotation Yrotation Zrotation
		End Site
		{
			OFFSET 0.000000 21.880577 0.000000
		}
	}
	JOINT Bag
	{
		OFFSET -13.229000 4.813004 -0.593300
		CHANNELS 3 Xrotation Yrotation Zrotation
		End Site
		{
			OFFSET 0.000000 21.880577 0.000000
		}
	}
	JOINT OccupyGuyFacialAnim_Joint
	{
		OFFSET 1.000000 -70.206398 -1.655000
		CHANNELS 3 Xrotation Yrotation Zrotation
		End Site
		{
			OFFSET 0.000000 21.880577 0.000000
		}
	}
}
MOTION
Frames: 4
Frame Time: 0.033333
-0.186246 78.429764 -1.667778 -97.067008 -7.087070 0.413447 -0.000000 0.000000 0.000000 8.508162 17.178069 8.238587 5.366196 -2.522763 5.222071 33.999497 30.254186 -30.236571 0.000002 0.000002 -0.000002 -0.000000 0.000001 0.000000 1.882950 -16.880739 -12.959772 8.671324 -0.121984 -5.008795 34.745288 -30.147178 30.386887 -0.000001 -0.000001 -0.000000 -0.000000 0.000002 -0.000000 3.842693 0.465648 -2.654393 2.910185 1.939841 -0.426861 2.924256 2.016602 -0.386828 -7.468008 14.780224 -3.615178 3.956670 44.683449 -6.562275 0.000000 -0.000002 0.000001 0.000000 -0.000002 0.000001 0.000000 -0.000002 0.000001 0.000000 -0.000002 0.000001 -0.000000 -0.000002 -0.000001 0.000000 -0.000002 0.000001 -0.000000 -0.000002 -0.000001 0.000000 -0.000002 0.000001 0.000000 -0.000002 0.000001 0.537865 2.497466 -4.459778 22.207291 -35.140948 -58.667910 0.000383 -80.479047 0.000407 -0.861493 5.652642 -13.775137 -5.218580 -3.359709 5.596912 7.385521 23.148028 2.272599 0.000003 -0.000000 -0.000002 0.915767 5.403953 -29.714174 0.382364 2.083591 -20.795011 -0.000000 0.000002 -0.000002 0.656299 4.925775 -25.952641 0.379109 2.075027 -20.705418 0.000002 -0.000001 -0.000001 0.574708 4.751498 -24.069213 0.379105 2.075037 -20.705408 -0.000001 0.000003 -0.000000 0.322892 4.082519 -17.072551 0.379113 2.075038 -20.705408 0.000001 0.000000 0.000001 0.000000 -0.000001 -0.000003 0.742219 0.945323 10.874828 38.160503 29.933615 32.072072 0.000046 102.885598 -0.000030 -38.422987 11.613687 12.523426 -8.245040 0.297086 -8.931529 7.579951 -24.795263 -2.906999 0.000002 -0.000001 -0.000004 0.905459 -3.314674 34.539457 0.217999 -1.409594 17.581791 -0.000002 -0.000000 -0.000002 -0.241997 -3.204347 32.825350 0.218121 -1.409975 17.586661 -0.000000 0.000000 -0.000001 -0.300128 -2.822086 28.489353 0.217999 -1.409601 17.581788 -0.000002 0.000001 -0.000002 0.330077 -3.878166 20.013568 0.218164 -1.410136 17.588685 0.000000 0.000000 0.000001 0.000001 -0.000003 -0.000000 0.000000 0.000000 -0.000000 0.000000 0.000000 -0.000000 0.000000 0.000000 -0.000000 0.000000 0.000000 -0.000000 0.000000 0.000000 -0.000000 0.000000 0.000000 -0.000000 0.000000 0.000000 -0.000000 0.000000 0.000000 -0.000000 0.000000 0.000000 -0.000000 0.000000 0.000000 -0.000000 -0.000000 0.000000 0.000000 -0.000000 0.000000 0.000000 -0.000000 0.000000 0.000000 
-0.185854 78.430954 -1.666862 -97.020665 -7.089987 0.407275 -0.000000 -0.000000 -0.000000 8.473722 17.118588 8.240099 5.355728 -2.442155 5.222021 34.021196 30.252533 -30.245440 -0.000001 0.000000 -0.000001 0.000000 -0.000000 -0.000000 1.842802 -16.880247 -12.944808 8.662290 -0.123381 -5.008576 34.740722 -30.147314 30.385343 -0.000001 0.000001 0.000000 0.000000 0.000000 -0.000000 3.780949 0.467141 -2.643623 2.865669 1.935253 -0.427132 2.878600 2.010334 -0.392659 -7.426475 14.735327 -3.633285 4.007929 44.756266 -6.496475 0.000000 -0.000001 -0.000000 0.000000 -0.000001 -0.000000 0.000000 -0.000001 -0.000000 0.000000 -0.000001 0.000000 -0.000000 0.000001 -0.000001 0.000000 -0.000001 0.000000 -0.000000 0.000001 -0.000001 0.000000 -0.000001 -0.000000 0.000000 -0.000001 -0.000000 0.539080 2.413663 -4.429143 22.246594 -35.060570 -58.765158 -0.000102 -80.487298 -0.000083 -0.855341 5.679102 -13.778775 -5.218585 -3.359711 5.596911 7.385522 23.148028 2.272605 0.000004 0.000003 -0.000001 0.915769 5.403954 -29.714174 0.382365 2.083593 -20.795010 0.000003 0.000001 -0.000000 0.656296 4.925774 -25.952637 0.379110 2.075033 -20.705420 0.000001 0.000004 0.000001 0.574708 4.751494 -24.069216 0.379109 2.075038 -20.705413 -0.000001 -0.000000 -0.000000 0.322890 4.082521 -17.072558 0.379116 2.075045 -20.705411 -0.000002 -0.000000 -0.000001 -0.000003 0.000000 0.000000 0.741106 1.020494 10.845026 38.181618 29.895571 32.143980 0.000037 102.886363 -0.000027 -38.436671 11.590732 12.520478 -8.245041 0.297088 -8.931531 7.579947 -24.795263 -2.907000 0.000000 -0.000001 -0.000003 0.905458 -3.314672 34.539454 0.218000 -1.409593 17.581791 0.000002 -0.000000 0.000002 -0.241998 -3.204344 32.825343 0.218125 -1.409976 17.586663 0.000001 0.000000 0.000001 -0.300130 -2.822084 28.489342 0.218000 -1.409600 17.581791 0.000001 0.000000 -0.000002 0.330074 -3.878164 20.013564 0.218166 -1.410138 17.588690 -0.000002 0.000000 0.000002 -0.000002 0.000001 0.000000 -0.000000 -0.000000 0.000000 -0.000000 0.000000 -0.000000 -0.000000 -0.000000 0.000000 -0.000000 -0.000000 0.000000 -0.000000 -0.000000 0.000000 -0.000000 0.000000 0.000000 -0.000000 -0.000000 0.000000 -0.000000 -0.000000 0.000000 -0.000000 -0.000000 0.000000 -0.000000 0.000000 0.000000 -0.000000 -0.000000 -0.000000 -0.000000 -0.000000 -0.000000 -0.000000 -0.000000 -0.000000 
-0.186012 78.432465 -1.665733 -96.965067 -7.084203 0.409141 -0.000000 0.000000 -0.000000 8.432756 17.056280 8.252663 5.338899 -2.364003 5.221972 34.046464 30.251260 -30.253817 0.000001 -0.000002 0.000000 -0.000000 0.000000 0.000000 1.791463 -16.877088 -12.936380 8.662599 -0.102632 -5.008363 34.742922 -30.147605 30.382952 -0.000000 -0.000000 -0.000000 0.000000 0.000000 -0.000000 3.702952 0.469143 -2.629374 2.812192 1.922956 -0.418892 2.825281 1.993027 -0.387508 -7.336672 14.685620 -3.636794 4.036334 44.839335 -6.427696 0.000001 0.000000 -0.000001 0.000001 0.000000 -0.000001 0.000001 0.000000 -0.000001 0.000001 0.000000 -0.000001 -0.000000 0.000000 -0.000001 0.000001 0.000000 -0.000001 -0.000000 0.000000 -0.000001 0.000001 0.000000 -0.000001 0.000001 0.000000 -0.000001 0.539993 2.313815 -4.388537 22.304126 -34.951082 -58.862611 -0.000019 -80.504448 0.000001 -0.859500 5.712967 -13.777747 -5.218584 -3.359712 5.596906 7.385523 23.148025 2.272606 -0.000003 0.000002 -0.000002 0.915768 5.403957 -29.714174 0.382365 2.083589 -20.795006 0.000002 0.000003 0.000000 0.656295 4.925773 -25.952641 0.379109 2.075027 -20.705416 0.000000 0.000002 -0.000001 0.574709 4.751493 -24.069213 0.379109 2.075034 -20.705411 -0.000003 0.000001 -0.000001 0.322889 4.082522 -17.072553 0.379114 2.075044 -20.705406 0.000002 -0.000001 0.000003 0.000000 0.000000 0.000002 0.739815 1.112481 10.808540 38.192130 29.873144 32.250162 -0.000008 102.863107 0.000030 -38.457199 11.584481 12.533758 -8.245045 0.297087 -8.931529 7.579948 -24.795262 -2.907007 -0.000001 0.000002 -0.000003 0.905460 -3.314672 34.539457 0.217997 -1.409593 17.581793 0.000001 0.000001 -0.000001 -0.241998 -3.204344 32.825343 0.218123 -1.409975 17.586658 0.000001 -0.000000 -0.000001 -0.300130 -2.822085 28.489344 0.217998 -1.409599 17.581786 -0.000000 -0.000000 -0.000001 0.330075 -3.878165 20.013566 0.218164 -1.410137 17.588683 -0.000001 0.000000 0.000002 -0.000001 -0.000001 0.000001 0.000000 0.000000 0.000000 0.000000 -0.000000 0.000000 0.000000 0.000000 0.000000 0.000000 0.000000 0.000000 0.000000 0.000000 0.000000 0.000000 -0.000000 0.000000 0.000000 0.000000 0.000000 0.000000 0.000000 0.000000 0.000000 0.000000 0.000000 0.000000 -0.000000 0.000000 -0.000000 0.000000 -0.000000 -0.000000 0.000000 -0.000000 -0.000000 0.000000 -0.000000 
-0.185927 78.433693 -1.664612 -96.910658 -7.084909 0.407461 -0.000000 0.000000 -0.000000 8.391167 16.992701 8.253358 5.328662 -2.290209 5.221931 34.073580 30.249911 -30.262277 0.000000 0.000001 0.000000 0.000000 -0.000000 0.000001 1.743011 -16.868098 -12.924612 8.658577 -0.088714 -5.008155 34.749878 -30.147741 30.381088 -0.000001 0.000001 -0.000001 0.000000 -0.000001 -0.000001 3.609830 0.473310 -2.611456 2.765293 1.911202 -0.427000 2.778002 1.976969 -0.394151 -7.207199 14.626527 -3.635163 4.047777 44.933680 -6.373831 -0.000000 -0.000002 0.000000 -0.000000 -0.000002 0.000000 -0.000000 -0.000002 0.000001 -0.000000 -0.000002 0.000000 -0.000000 -0.000002 -0.000000 -0.000000 -0.000002 0.000000 -0.000000 -0.000002 -0.000000 -0.000000 -0.000002 0.000000 -0.000000 -0.000002 0.000000 0.540671 2.199989 -4.339133 22.337314 -34.834460 -58.987337 0.000105 -80.502993 0.000120 -0.868998 5.754781 -13.789822 -5.218584 -3.359713 5.596913 7.385517 23.148032 2.272598 -0.000001 0.000004 -0.000003 0.915769 5.403958 -29.714174 0.382365 2.083592 -20.795011 0.000001 -0.000003 0.000001 0.656297 4.925774 -25.952641 0.379110 2.075032 -20.705418 0.000001 -0.000003 0.000000 0.574708 4.751495 -24.069213 0.379103 2.075036 -20.705415 -0.000004 -0.000001 -0.000000 0.322891 4.082524 -17.072550 0.379116 2.075048 -20.705408 -0.000002 0.000001 0.000003 -0.000001 0.000000 0.000003 0.738508 1.219191 10.766195 38.205794 29.848681 32.355866 -0.000086 102.843914 0.000077 -38.474480 11.590624 12.535029 -8.245041 0.297090 -8.931534 7.579949 -24.795262 -2.907004 0.000001 0.000002 -0.000006 0.905459 -3.314672 34.539457 0.217998 -1.409592 17.581786 -0.000002 -0.000000 0.000000 -0.241999 -3.204345 32.825343 0.218124 -1.409976 17.586663 0.000001 -0.000000 -0.000001 -0.300128 -2.822086 28.489353 0.217998 -1.409601 17.581786 -0.000001 0.000000 -0.000002 0.330074 -3.878165 20.013566 0.218167 -1.410137 17.588685 0.000001 0.000000 0.000002 -0.000003 0.000000 -0.000000 -0.000000 0.000000 0.000000 -0.000000 0.000000 0.000000 -0.000000 0.000000 0.000000 -0.000000 0.000000 0.000000 -0.000000 0.000000 0.000000 -0.000000 0.000000 0.000000 -0.000000 0.000000 0.000000 -0.000000 0.000000 0.000000 -0.000000 0.000000 0.000000 -0.000000 0.000000 0.000000 -0.000000 0.000000 -0.000000 -0.000000 0.000000 -0.000000 -0.000000 0.000000 -0.000000 
